<svg width="29" height="30" viewBox="0 0 29 30" fill="none" xmlns="http://www.w3.org/2000/svg">
<path d="M22.176 7.49688H6.48098C5.916 7.49688 5.46008 7.04158 5.46008 6.47442C5.46008 5.90975 5.916 5.45165 6.48098 5.45165H22.176C22.7412 5.45165 23.1997 5.90975 23.1997 6.47442C23.1997 7.04158 22.7412 7.49688 22.176 7.49688ZM22.176 12.9513H6.48098C5.916 12.9513 5.46008 12.4932 5.46008 11.9286C5.46008 11.3639 5.916 10.9061 6.48098 10.9061H22.176C22.7412 10.9061 23.1997 11.3639 23.1997 11.9286C23.1997 12.4932 22.7412 12.9513 22.176 12.9513ZM22.176 18.403H6.48098C5.916 18.403 5.46008 17.9477 5.46008 17.3802C5.46008 16.8155 5.916 16.3578 6.48098 16.3578H22.176C22.7412 16.3578 23.1997 16.8155 23.1997 17.3802C23.1997 17.9477 22.7412 18.403 22.176 18.403ZM23.1997 0H5.46008C2.44459 0 0 2.44209 0 5.45165V18.403C0 21.415 2.44459 23.8574 5.46008 23.8574H15.0125L21.0188 29.8603C21.2057 30.0466 21.5094 30.0466 21.696 29.8603C21.7841 29.7697 21.8347 29.6472 21.8347 29.5219V23.8574H23.1997C26.2152 23.8574 28.6572 21.415 28.6572 18.403V5.45165C28.6572 2.44209 26.2152 0 23.1997 0Z" fill="#ECB597"/>
</svg>
