<?xml version="1.0" encoding="UTF-8"?><svg xmlns="http://www.w3.org/2000/svg" xmlns:xlink="http://www.w3.org/1999/xlink" width="375" zoomAndPan="magnify" viewBox="0 0 375 374.999991" height="374.999991" preserveAspectRatio="xMidYMid meet" version="1.0"><defs><clipPath id="clip-0"><path d="M 1.066406 0 L 98 0 L 98 101 L 1.066406 101 Z M 1.066406 0 " clip-rule="nonzero"/></clipPath><clipPath id="clip-1"><path d="M 284 279 L 373.816406 279 L 373.816406 375 L 284 375 Z M 284 279 " clip-rule="nonzero"/></clipPath></defs><path fill="rgb(20.388794%, 20.388794%, 20.388794%)" d="M 116.839844 49.898438 L 54.734375 120.015625 L 264.132812 329.460938 L 326.175781 259.34375 Z M 116.839844 49.898438 " fill-opacity="1" fill-rule="nonzero"/><g clip-path="url(#clip-0)"><path fill="rgb(20.388794%, 20.388794%, 20.388794%)" d="M 97.769531 30.863281 L 80.835938 13.9375 C 62.601562 -4.324219 32.988281 -4.324219 14.773438 13.9375 C -3.503906 32.1875 -3.503906 61.792969 14.773438 80.046875 L 35.660156 100.941406 Z M 97.769531 30.863281 " fill-opacity="1" fill-rule="nonzero"/></g><g clip-path="url(#clip-1)"><path fill="rgb(20.388794%, 20.388794%, 20.388794%)" d="M 345.246094 279.71875 L 284.128906 348.730469 L 373.816406 374.757812 Z M 345.246094 279.71875 " fill-opacity="1" fill-rule="nonzero"/></g></svg>