<svg width="38" height="30" viewBox="0 0 38 30" fill="none" xmlns="http://www.w3.org/2000/svg">
<path d="M15.7929 14.2103V16.5788C15.7929 17.0145 16.1467 17.3683 16.5828 17.3683H21.3206C21.7567 17.3683 22.1101 17.0145 22.1101 16.5788V14.2103H37.9034V29.2103C37.9034 29.646 37.5496 29.9998 37.1135 29.9998H0.789496C0.353853 29.9998 0 29.646 0 29.2103V14.2103H15.7929ZM17.3723 14.2103H20.5311V15.7893H17.3723V14.2103ZM37.9034 12.6314H0V5.52631C0 5.09025 0.353853 4.73682 0.789496 4.73682H37.1135C37.5496 4.73682 37.9034 5.09025 37.9034 5.52631V12.6314Z" fill="#ECB597"/>
<path d="M12.6345 0.789496C12.6345 0.353854 12.9884 0 13.424 0H24.4795C24.9151 0 25.269 0.353854 25.269 0.789496V6.31597H23.6896V1.57899H14.2139V6.31597H12.6345V0.789496Z" fill="#ECB597"/>
</svg>
