<svg width="30" height="30" viewBox="0 0 30 30" fill="none" xmlns="http://www.w3.org/2000/svg">
<g clip-path="url(#clip0_165:1228)">
<path d="M15.0205 -0.0205078C6.75176 -0.0205078 0.0205078 6.71074 0.0205078 14.9795C0.0205078 23.2482 6.75176 29.9795 15.0205 29.9795C19.4527 29.9795 23.4439 28.0429 26.1864 24.9798C26.2164 24.9482 26.2449 24.9154 26.2714 24.8811C26.298 24.8467 26.323 24.8111 26.3461 24.7742C26.3693 24.7373 26.3905 24.6992 26.4096 24.6601C26.4289 24.6211 26.4464 24.5814 26.4618 24.5407C26.4771 24.4998 26.4902 24.4586 26.5014 24.4164C26.5127 24.3745 26.5214 24.332 26.5286 24.2889C26.5355 24.2461 26.5402 24.2026 26.5427 24.1592C26.5455 24.1157 26.5458 24.0723 26.5439 24.0289C26.5424 23.9854 26.5383 23.942 26.5324 23.8992C26.5261 23.8561 26.518 23.8132 26.5077 23.7711C26.4974 23.7289 26.4849 23.687 26.4702 23.6461C26.4558 23.6051 26.4393 23.5648 26.4205 23.5254C26.4021 23.4861 26.3818 23.4479 26.3593 23.4104C26.3368 23.3732 26.3127 23.337 26.2868 23.3023C26.2605 23.2673 26.233 23.2339 26.2036 23.2017C26.1743 23.1695 26.1433 23.1389 26.1108 23.1098C26.0786 23.0807 26.0449 23.0536 26.0096 23.0279C25.9746 23.0023 25.938 22.9782 25.9005 22.9564C25.863 22.9342 25.8246 22.9142 25.7849 22.8961C25.7455 22.8779 25.7052 22.8617 25.6639 22.8476C25.6227 22.8336 25.5808 22.8214 25.5386 22.8117C25.4961 22.8017 25.4536 22.7939 25.4102 22.7882C25.3671 22.7826 25.3239 22.7789 25.2805 22.7776C25.2368 22.7764 25.1933 22.7773 25.1499 22.7801C25.1064 22.7832 25.0633 22.7886 25.0205 22.7957C24.9777 22.8032 24.9352 22.8126 24.8933 22.8242C24.8514 22.8357 24.8102 22.8495 24.7696 22.8651C24.7289 22.8807 24.6893 22.8986 24.6505 22.9182C24.6118 22.9379 24.5739 22.9595 24.5374 22.9829C24.5005 23.0064 24.4652 23.0317 24.4311 23.0586C24.3971 23.0857 24.3643 23.1142 24.333 23.1445C24.3018 23.1748 24.2721 23.2067 24.2439 23.2398C21.9739 25.7751 18.6949 27.3707 15.0205 27.3707C8.16145 27.3707 2.62926 21.8386 2.62926 14.9795C2.62926 8.12043 8.16145 2.58824 15.0205 2.58824C18.6943 2.58824 21.9733 4.18355 24.2439 6.71887C24.2721 6.7523 24.3018 6.78387 24.333 6.81418C24.3643 6.84449 24.3971 6.87324 24.4311 6.90012C24.4652 6.9273 24.5005 6.9523 24.5374 6.97605C24.5739 6.99949 24.6118 7.02105 24.6505 7.04074C24.6893 7.06043 24.7289 7.07793 24.7696 7.09387C24.8102 7.10949 24.8514 7.12324 24.8933 7.1348C24.9352 7.14637 24.9777 7.15574 25.0205 7.16293C25.0633 7.17043 25.1064 7.17574 25.1499 7.17855C25.1933 7.18168 25.2368 7.18262 25.2805 7.18105C25.3239 7.1798 25.3671 7.17637 25.4102 7.17074C25.4536 7.16512 25.4961 7.1573 25.5386 7.1473C25.5808 7.1373 25.6227 7.12543 25.6639 7.11105C25.7052 7.09699 25.7455 7.08105 25.7849 7.06293C25.8246 7.04449 25.863 7.02449 25.9005 7.00262C25.938 6.98043 25.9746 6.95668 26.0096 6.93105C26.0449 6.90543 26.0786 6.87793 26.1108 6.84887C26.1433 6.8198 26.1743 6.78949 26.2036 6.7573C26.233 6.72512 26.2605 6.69168 26.2868 6.65668C26.3127 6.62168 26.3368 6.58574 26.3593 6.54824C26.3818 6.51105 26.4021 6.47262 26.4205 6.43324C26.4393 6.39387 26.4558 6.35387 26.4702 6.31262C26.4849 6.27168 26.4974 6.23012 26.5077 6.18793C26.518 6.14543 26.5261 6.10293 26.5324 6.0598C26.5383 6.01668 26.5424 5.97355 26.5439 5.9298C26.5458 5.88637 26.5455 5.84293 26.5427 5.79949C26.5402 5.75605 26.5355 5.71293 26.5286 5.67012C26.5214 5.62699 26.5127 5.58449 26.5014 5.5423C26.4902 5.50043 26.4771 5.45887 26.4618 5.41824C26.4464 5.37762 26.4289 5.33762 26.4096 5.29855C26.3905 5.25949 26.3693 5.22168 26.3461 5.1848C26.323 5.14793 26.298 5.1123 26.2714 5.07793C26.2449 5.04355 26.2164 5.01043 26.1864 4.97887C23.4433 1.91605 19.4521 -0.0205078 15.0205 -0.0205078ZM24.0961 9.09699C24.0318 9.0973 23.9677 9.10199 23.9039 9.11168C23.8402 9.12137 23.7774 9.13543 23.7158 9.15449C23.6539 9.17324 23.5943 9.19668 23.5358 9.22449C23.4777 9.25199 23.4218 9.28418 23.3683 9.32012C23.3149 9.35605 23.2646 9.39605 23.2168 9.43949C23.1693 9.48293 23.1252 9.5298 23.0846 9.58012C23.0439 9.63012 23.0074 9.68293 22.9746 9.73824C22.9418 9.79387 22.9133 9.85168 22.8889 9.91137C22.8649 9.97105 22.8452 10.0323 22.8299 10.0951C22.8149 10.1576 22.8043 10.2211 22.7986 10.2854C22.7927 10.3495 22.7918 10.4139 22.7955 10.4782C22.7993 10.5426 22.808 10.6064 22.8211 10.6695C22.8346 10.7326 22.8524 10.7945 22.8746 10.8548C22.8971 10.9154 22.9239 10.9739 22.9549 11.0304C22.9858 11.0867 23.0211 11.1407 23.0602 11.192C23.0993 11.2432 23.1418 11.2914 23.188 11.3364L25.5268 13.6751H13.6755C13.6324 13.6745 13.5893 13.6761 13.5464 13.6795C13.5033 13.6832 13.4608 13.6892 13.4183 13.697C13.3761 13.7048 13.3343 13.7148 13.2927 13.727C13.2514 13.7389 13.2105 13.7529 13.1705 13.7689C13.1305 13.7851 13.0914 13.8032 13.0533 13.8229C13.0152 13.8429 12.978 13.8648 12.9418 13.8886C12.9058 13.912 12.8711 13.9373 12.8374 13.9645C12.8039 13.9917 12.7718 14.0201 12.7411 14.0504C12.7105 14.0807 12.6814 14.1126 12.6536 14.1457C12.6261 14.1789 12.6005 14.2132 12.5761 14.2489C12.5521 14.2848 12.5299 14.3214 12.5093 14.3595C12.4889 14.3973 12.4702 14.4361 12.4536 14.4761C12.4371 14.5157 12.4224 14.5564 12.4096 14.5973C12.3971 14.6386 12.3864 14.6804 12.378 14.7226C12.3696 14.7648 12.3633 14.8076 12.3589 14.8504C12.3546 14.8932 12.3524 14.9364 12.3524 14.9795C12.3524 15.0226 12.3546 15.0654 12.3589 15.1086C12.3633 15.1514 12.3696 15.1939 12.378 15.2361C12.3864 15.2786 12.3971 15.3201 12.4096 15.3614C12.4224 15.4026 12.4371 15.4432 12.4536 15.4829C12.4702 15.5226 12.4889 15.5614 12.5093 15.5995C12.5299 15.6373 12.5521 15.6742 12.5761 15.7098C12.6005 15.7457 12.6261 15.7801 12.6536 15.8132C12.6814 15.8464 12.7105 15.8779 12.7411 15.9082C12.7718 15.9386 12.8039 15.9673 12.8374 15.9945C12.8711 16.0214 12.9058 16.0467 12.9418 16.0704C12.978 16.0942 13.0152 16.1157 13.0533 16.1357C13.0914 16.1557 13.1305 16.1739 13.1705 16.1898C13.2105 16.2061 13.2514 16.2201 13.2927 16.232C13.3343 16.2442 13.3761 16.2539 13.4183 16.262C13.4608 16.2698 13.5033 16.2754 13.5464 16.2792C13.5893 16.2829 13.6324 16.2845 13.6755 16.2839H25.5268L23.188 18.6223C23.1568 18.6523 23.1271 18.6839 23.0989 18.7167C23.0711 18.7498 23.0446 18.7839 23.0199 18.8195C22.9952 18.8551 22.9724 18.8917 22.9514 18.9295C22.9302 18.9673 22.9111 19.0061 22.8939 19.0457C22.8768 19.0857 22.8618 19.1261 22.8486 19.1673C22.8355 19.2086 22.8243 19.2504 22.8155 19.2926C22.8064 19.3351 22.7996 19.3776 22.7949 19.4207C22.7902 19.4639 22.7874 19.507 22.7871 19.5501C22.7868 19.5936 22.7883 19.6367 22.7921 19.6798C22.7961 19.7229 22.8021 19.7657 22.8102 19.8082C22.8183 19.8507 22.8286 19.8926 22.8408 19.9342C22.853 19.9757 22.8674 20.0164 22.8839 20.0564C22.9002 20.0967 22.9183 20.1357 22.9386 20.1739C22.9589 20.2123 22.9811 20.2492 23.0049 20.2854C23.0289 20.3214 23.0546 20.3561 23.0821 20.3898C23.1096 20.4232 23.1386 20.4551 23.1689 20.4857C23.1996 20.5164 23.2318 20.5454 23.2652 20.5729C23.2986 20.6001 23.3336 20.6261 23.3696 20.6498C23.4055 20.6739 23.4427 20.6961 23.4808 20.7161C23.5193 20.7364 23.5583 20.7548 23.5983 20.7711C23.6386 20.7873 23.6793 20.8017 23.7208 20.8142C23.7624 20.8264 23.8043 20.8367 23.8468 20.8448C23.8893 20.8529 23.9321 20.8589 23.9752 20.8626C24.0183 20.8667 24.0614 20.8682 24.1049 20.8679C24.148 20.8673 24.1911 20.8648 24.2343 20.8601C24.2771 20.8554 24.3199 20.8486 24.3624 20.8395C24.4046 20.8304 24.4464 20.8195 24.4877 20.8064C24.5289 20.7932 24.5693 20.7779 24.6089 20.7607C24.6486 20.7436 24.6874 20.7245 24.7252 20.7036C24.7633 20.6826 24.7999 20.6595 24.8355 20.6351C24.8708 20.6104 24.9052 20.5839 24.938 20.5557C24.9711 20.5276 25.0024 20.4979 25.0324 20.467L29.4818 16.0176C29.5218 15.9873 29.5599 15.9545 29.5961 15.9198C29.6324 15.8848 29.6664 15.8482 29.6986 15.8095C29.7305 15.7707 29.7602 15.7301 29.7874 15.6879C29.8149 15.6457 29.8396 15.6023 29.8621 15.5573C29.8843 15.512 29.9039 15.4661 29.9208 15.4186C29.9377 15.3714 29.9518 15.3232 29.9633 15.2742C29.9746 15.2254 29.9833 15.1757 29.9889 15.1257C29.9946 15.0761 29.9974 15.0257 29.9971 14.9757C29.9971 14.9254 29.9939 14.8751 29.988 14.8254C29.9821 14.7754 29.9733 14.7261 29.9618 14.6773C29.9502 14.6282 29.9358 14.5801 29.9186 14.5329C29.9014 14.4857 29.8814 14.4398 29.8589 14.3948C29.8364 14.3498 29.8114 14.3064 29.7839 14.2642C29.7564 14.2223 29.7268 14.182 29.6946 14.1432C29.6624 14.1048 29.628 14.0679 29.5914 14.0336C29.5552 13.9989 29.5168 13.9664 29.4768 13.9361L25.0324 9.49199C24.9096 9.36574 24.7668 9.26824 24.6043 9.1998C24.4421 9.13105 24.2727 9.09699 24.0961 9.09699Z" fill="#343434"/>
</g>
<defs>
<clipPath id="clip0_165:1228">
<rect width="30" height="30" fill="#343434"/>
</clipPath>
</defs>
</svg>
