<svg width="193" height="44" viewBox="0 0 193 44" fill="none" xmlns="http://www.w3.org/2000/svg">
<path d="M32.66 36.76C32.9 37.08 33.1 37.48 33.26 37.96C33.42 38.4 33.5 38.82 33.5 39.22C33.5 40.3 33.08 41.2 32.24 41.92C31.44 42.64 30.5 43 29.42 43C28.9 43 28.4 42.88 27.92 42.64C27.44 42.4 27.04 42.06 26.72 41.62L13.7 24.46L8 29.92V39.34C8 40.42 7.64 41.3 6.92 41.98C6.24 42.66 5.34 43 4.22 43C3.14 43 2.24 42.66 1.52 41.98C0.84 41.26 0.5 40.38 0.5 39.34V4.66C0.5 3.62 0.86 2.76 1.58 2.08C2.3 1.36 3.22 0.999997 4.34 0.999997C5.42 0.999997 6.3 1.34 6.98 2.02C7.66 2.7 8 3.58 8 4.66V20.98L27.2 2.08C28.12 1.16 29.1 0.699997 30.14 0.699997C31.06 0.699997 31.84 1.08 32.48 1.84C33.12 2.6 33.44 3.4 33.44 4.24C33.44 5.08 33.08 5.86 32.36 6.58L19.28 19.06L32.66 36.76ZM72.7564 38.32C72.9564 38.84 73.0564 39.32 73.0564 39.76C73.0564 40.8 72.7164 41.66 72.0364 42.34C71.3564 42.98 70.5764 43.3 69.6964 43.3C68.9764 43.3 68.3164 43.08 67.7164 42.64C67.1564 42.2 66.7164 41.6 66.3964 40.84L63.2764 33.58H45.3964L42.2764 40.9C41.9964 41.66 41.5564 42.26 40.9564 42.7C40.3964 43.1 39.7764 43.3 39.0964 43.3C38.0564 43.3 37.2564 43.02 36.6964 42.46C36.1764 41.9 35.9164 41.14 35.9164 40.18C35.9164 39.82 35.9764 39.44 36.0964 39.04L51.0364 3.16C51.3564 2.36 51.8364 1.74 52.4764 1.3C53.1164 0.859998 53.8364 0.679998 54.6364 0.759997C55.3564 0.759997 56.0164 0.979997 56.6164 1.42C57.2564 1.82 57.7164 2.4 57.9964 3.16L72.7564 38.32ZM60.3364 26.68L54.2764 12.64L48.3364 26.68H60.3364ZM96.1367 0.999997C99.8967 0.999997 103.117 1.94 105.797 3.82C108.517 5.66 110.577 8.18 111.977 11.38C113.417 14.54 114.137 18.08 114.137 22C114.137 25.92 113.417 29.48 111.977 32.68C110.577 35.84 108.517 38.36 105.797 40.24C103.117 42.08 99.8967 43 96.1367 43H81.7967C80.7567 43 79.8767 42.66 79.1567 41.98C78.4767 41.26 78.1367 40.38 78.1367 39.34V4.66C78.1367 3.62 78.4767 2.76 79.1567 2.08C79.8767 1.36 80.7567 0.999997 81.7967 0.999997H96.1367ZM95.5367 36.1C99.1367 36.1 101.837 34.78 103.637 32.14C105.437 29.46 106.337 26.08 106.337 22C106.337 17.92 105.417 14.56 103.577 11.92C101.777 9.24 99.0967 7.9 95.5367 7.9H85.6367V36.1H95.5367ZM134.287 16.36C136.487 16.44 138.427 17.08 140.107 18.28C141.827 19.48 143.147 21.06 144.067 23.02C144.987 24.94 145.447 27 145.447 29.2C145.447 32.12 144.787 34.68 143.467 36.88C142.147 39.04 140.287 40.7 137.887 41.86C135.487 43.02 132.687 43.6 129.487 43.6C128.047 43.6 126.607 43.42 125.167 43.06C123.727 42.7 122.467 42.22 121.387 41.62C119.907 40.82 119.167 39.74 119.167 38.38C119.167 37.42 119.507 36.54 120.187 35.74C120.867 34.94 121.687 34.54 122.647 34.54C123.447 34.54 124.307 34.84 125.227 35.44C126.947 36.76 128.847 37.42 130.927 37.42C132.167 37.42 133.347 37.12 134.467 36.52C135.587 35.88 136.487 34.98 137.167 33.82C137.887 32.62 138.247 31.26 138.247 29.74C138.247 27.58 137.587 25.9 136.267 24.7C134.987 23.5 133.427 22.9 131.587 22.9C130.787 22.9 130.087 22.98 129.487 23.14C128.887 23.3 128.527 23.4 128.407 23.44C127.367 23.76 126.507 23.92 125.827 23.92C124.947 23.92 124.247 23.62 123.727 23.02C123.207 22.38 122.947 21.6 122.947 20.68C122.947 20.12 123.047 19.62 123.247 19.18C123.447 18.74 123.787 18.26 124.267 17.74L133.567 7.6H121.687C120.727 7.6 119.927 7.28 119.287 6.64C118.647 6 118.327 5.2 118.327 4.24C118.327 3.32 118.647 2.56 119.287 1.96C119.927 1.32 120.727 0.999997 121.687 0.999997H140.047C141.247 0.999997 142.167 1.34 142.807 2.02C143.447 2.66 143.767 3.52 143.767 4.6C143.767 5.56 143.287 6.52 142.327 7.48L134.287 16.36ZM188.795 0.939998C189.795 0.939998 190.655 1.3 191.375 2.02C192.135 2.7 192.515 3.56 192.515 4.6V39.34C192.515 40.38 192.175 41.26 191.495 41.98C190.815 42.66 189.915 43 188.795 43C187.675 43 186.755 42.66 186.035 41.98C185.355 41.3 185.015 40.42 185.015 39.34V15.16L175.115 30.28C174.715 30.76 174.255 31.16 173.735 31.48C173.215 31.76 172.675 31.88 172.115 31.84C171.595 31.88 171.075 31.76 170.555 31.48C170.035 31.16 169.575 30.76 169.175 30.28L159.275 14.62V39.34C159.275 40.42 158.955 41.3 158.315 41.98C157.675 42.66 156.835 43 155.795 43C154.795 43 153.975 42.66 153.335 41.98C152.695 41.26 152.375 40.38 152.375 39.34V4.6C152.375 3.6 152.735 2.74 153.455 2.02C154.215 1.3 155.115 0.939998 156.155 0.939998C156.755 0.939998 157.355 1.1 157.955 1.42C158.555 1.7 159.015 2.08 159.335 2.56L172.415 22.66L185.855 2.56C186.175 2.08 186.595 1.7 187.115 1.42C187.675 1.1 188.235 0.939998 188.795 0.939998Z" fill="#ECB597"/>
</svg>
