<svg width="30" height="30" viewBox="0 0 30 30" fill="none" xmlns="http://www.w3.org/2000/svg">
<g clip-path="url(#clip0_169:29)">
<path d="M27.6945 21.3571C27.7623 21.3718 27.8323 21.379 27.9017 21.379C28.3057 21.379 28.6679 21.1359 28.8239 20.7593C29.1711 19.9193 29.4436 19.0518 29.6332 18.179C29.7298 17.7287 29.4904 17.2637 29.0626 17.0731L26.6901 16.0303C26.7545 15.3046 26.7517 14.5753 26.682 13.8562L29.0307 12.8234C29.4595 12.6321 29.697 12.1568 29.5954 11.6896C29.4873 11.2193 29.3701 10.7925 29.2373 10.3846C29.1032 9.97277 28.9467 9.55933 28.7586 9.11996C28.5732 8.69027 28.1148 8.43683 27.6367 8.53715L25.1295 9.08058C24.7673 8.46402 24.3411 7.87246 23.8579 7.31652L25.1632 5.07902C25.3989 4.67465 25.3201 4.15683 24.9751 3.84715C24.3067 3.25027 23.5761 2.70902 22.8061 2.23933C22.4029 1.99058 21.8467 2.06996 21.5392 2.4159L19.837 4.32027C19.1579 4.01215 18.4464 3.76871 17.7164 3.59465L17.4542 1.0009C17.4079 0.539334 17.0432 0.167771 16.5864 0.117146C15.7026 0.0205834 14.7992 0.00464596 13.9086 0.0687085C13.422 0.104333 13.0323 0.476834 12.9814 0.956521L12.7242 3.49246C12.2179 3.58902 11.7661 3.70277 11.3501 3.83871C11.0473 3.93683 10.7529 4.04558 10.4564 4.1684L8.73074 2.23683C8.42637 1.89777 7.90012 1.80777 7.50762 2.03152C6.75324 2.46371 6.02324 2.97371 5.33543 3.5484C4.96387 3.86371 4.86918 4.39496 5.11043 4.8134L6.38762 7.00246C5.82855 7.60465 5.32949 8.27277 4.90012 8.99371L2.37199 8.44621C1.91355 8.34527 1.43574 8.5959 1.25012 9.02683C0.908241 9.8059 0.628866 10.6334 0.420741 11.4843C0.301991 11.9578 0.538553 12.4418 0.981366 12.6353L3.3148 13.6653C3.21355 14.529 3.20668 15.3884 3.29418 16.2271L0.946678 17.259C0.515428 17.4521 0.279491 17.9284 0.384803 18.3909C0.481678 18.8243 0.597928 19.2475 0.729491 19.6462C0.854803 20.0353 1.00512 20.4337 1.18762 20.8621C1.37012 21.2968 1.85699 21.5462 2.31043 21.4481L4.81293 20.9078C5.23793 21.6393 5.7498 22.3306 6.33793 22.9681L5.05355 25.1712C4.81105 25.5865 4.90418 26.1159 5.27543 26.4303C5.93855 26.99 6.65105 27.495 7.39199 27.9309C7.79043 28.1665 8.32949 28.0881 8.64355 27.744L10.3667 25.8125C11.1404 26.145 11.937 26.3921 12.7407 26.5493L12.9979 29.0706C13.0442 29.5518 13.432 29.9275 13.9223 29.9637C14.2642 29.9878 14.6136 30.0003 14.9604 30.0003C15.4898 30.0003 16.0304 29.9718 16.5698 29.9153C17.0264 29.8646 17.3911 29.4928 17.4373 29.0321L17.6989 26.4534C18.0264 26.375 18.3292 26.2903 18.6186 26.1965C19.0351 26.0596 19.467 25.8856 19.9329 25.6668L21.9904 27.9665C22.0964 28.0853 22.2704 28.1131 22.4082 28.0346C23.3532 27.4959 24.2389 26.855 25.0414 26.129C25.3798 25.8212 25.4548 25.3056 25.2204 24.9028L23.9104 22.65C24.3992 22.0768 24.8307 21.4625 25.197 20.8175L27.6945 21.3571ZM16.9104 20.9431C16.2842 21.1459 15.6367 21.2487 14.9851 21.2487C14.9851 21.2487 14.9848 21.2487 14.9845 21.2487C12.2764 21.2484 9.89355 19.5184 9.05637 16.944C7.9973 13.6756 9.79168 10.1531 13.0564 9.09183C13.6826 8.88902 14.3304 8.78621 14.9826 8.78621C17.6907 8.78621 20.0732 10.5162 20.9107 13.0909C21.9698 16.3596 20.1754 19.8818 16.9104 20.9431Z" fill="#ECB597"/>
</g>
<defs>
<clipPath id="clip0_169:29">
<rect width="30" height="30" fill="white"/>
</clipPath>
</defs>
</svg>
