<svg width="72" height="145" viewBox="0 0 72 145" fill="none" xmlns="http://www.w3.org/2000/svg">
<path d="M39.2468 113.339C37.9695 114.511 36.5046 115.421 35.0515 116.347C34.782 116.503 34.5242 116.683 34.282 116.886C33.614 117.483 32.8054 117.866 32.0632 118.351C31.4109 118.78 30.7156 119.144 30.0359 119.538C29.7195 119.718 29.4031 119.897 29.0867 120.081C28.8171 120.237 28.5359 120.382 28.282 120.558C27.7234 120.948 27.2039 121.378 26.5945 121.698C26.3249 121.858 26.0749 122.046 25.8484 122.261C25.5945 122.464 25.4226 122.722 25.3367 123.034C24.9695 124.452 24.5749 125.862 24.239 127.284C24.1062 127.839 24.0984 128.421 24.0515 128.995C24.0281 129.253 24.0906 129.526 24.0359 129.776C23.8289 130.733 24.0632 131.644 24.3093 132.55C24.9148 134.769 25.5164 136.987 26.1296 139.202C26.321 139.909 26.5632 140.601 26.7703 141.3C27.0554 142.253 27.3484 143.202 27.5945 144.159C27.7976 144.976 28.1023 145.749 28.5124 146.483C28.6765 146.765 28.7156 147.05 28.7624 147.362C28.8484 147.929 29.0359 148.479 29.1648 149.034C29.1999 149.237 29.2156 149.44 29.2039 149.647C29.2039 149.772 29.114 149.819 28.989 149.831C28.7664 149.862 28.5789 149.8 28.4148 149.647C28.114 149.351 27.8874 149.003 27.739 148.604C27.5437 148.12 27.3679 147.628 27.1882 147.136C26.3132 144.726 25.6453 142.257 24.9578 139.792C24.5124 138.183 24.0593 136.569 23.6687 134.944C23.2234 133.12 22.8601 131.269 22.4304 129.444C22.0828 127.968 21.8484 126.472 21.6492 124.968C21.5906 124.507 21.4812 124.042 21.3757 123.589C20.9031 121.55 20.5476 119.491 20.3015 117.413C20.1609 116.218 20.114 115.022 20.0789 113.823C20.0164 111.733 20.0789 109.644 20.1023 107.558C20.114 105.515 20.2781 103.487 20.6023 101.472C20.8132 100.237 20.9734 98.9951 21.1374 97.7529C21.2898 96.6045 21.3367 95.4638 21.0242 94.3271C20.9617 94.0224 20.9148 93.7099 20.8835 93.3974C20.6999 92.2099 20.4382 91.0381 20.1023 89.8818C19.7781 88.7803 19.5085 87.6592 19.1921 86.5576C18.7859 85.1513 18.4304 83.7256 17.9148 82.3623C17.364 80.9013 16.8132 79.4326 15.9031 78.1279C15.4851 77.5342 15.1296 76.8896 14.7664 76.2607C14.2429 75.3545 13.6218 74.5185 13.1062 73.6123C12.4812 72.5263 11.8328 71.456 11.196 70.3779C10.2546 68.167 9.22729 65.9912 8.52026 63.6943C8.47729 63.5967 8.44604 63.499 8.4187 63.3974C8.20776 62.0459 7.6687 60.7881 7.35229 59.4678C7.22338 58.9599 7.14526 58.4482 7.11401 57.9248C7.08276 57.1943 7.00463 56.4678 6.93823 55.7373C6.76635 53.9638 6.74682 52.1982 7.03588 50.4287C7.1726 49.6006 7.22338 48.7685 7.18823 47.9287C7.12573 46.5146 7.25854 45.1123 7.32495 43.7021C7.3562 43.0263 7.41088 42.3467 7.42651 41.667C7.46166 40.2568 7.59838 38.8545 7.84057 37.4599C8.01635 36.4287 8.12182 35.3896 8.16088 34.3428C8.22729 32.8818 8.35229 31.4287 8.51635 29.9717C8.73901 27.9482 8.81713 25.9092 8.94604 23.874C8.96167 23.6123 8.95385 23.3545 8.92651 23.0928C8.89135 22.7217 8.76245 22.3857 8.53979 22.0849C8.22729 21.6709 8.00073 21.1865 7.6726 20.7881C7.37573 20.4326 6.96167 20.1748 6.63745 19.8388C5.94995 19.1201 5.27026 18.3974 4.61791 17.6474C3.61401 16.4912 2.86401 15.1865 2.37182 13.7334C1.95776 12.5498 1.57104 11.3584 1.14526 10.1787C0.774165 9.14353 0.520259 8.08494 0.387446 6.99119C0.313227 6.42478 0.196041 5.85838 0.129634 5.28806C0.0593216 4.71775 0.0163524 4.14744 0.000727388 3.57322C-0.0109906 2.10056 0.114009 1.59275 0.731196 0.249001C0.840571 0.0146258 1.34448 -0.0869364 1.55932 0.0888446C2.0476 0.495095 2.43823 0.97947 2.72729 1.54197C2.94995 1.95603 3.13745 2.38572 3.34838 2.80759C3.68432 3.51463 4.07885 4.19041 4.53588 4.83103C4.78198 5.16306 4.98901 5.53025 5.21948 5.87791C5.41088 6.19041 5.62182 6.48728 5.84838 6.76853C6.71557 7.76072 7.37182 8.88572 8.01245 10.0224C8.24682 10.4326 8.41479 10.8662 8.51635 11.3271C8.80151 12.6553 9.09448 13.9834 9.39917 15.3076C9.48901 15.7138 9.6101 16.1123 9.74292 16.5107C10.3445 18.292 11.0867 20.0146 11.9773 21.6748C12.4148 22.5068 12.8289 23.3467 13.2234 24.2021C13.6374 25.1045 14.1296 25.9638 14.6999 26.7763C15.3132 27.624 15.8718 28.499 16.3835 29.4092C16.446 29.5537 16.5281 29.6865 16.6257 29.8115C17.3406 30.5224 17.6843 31.4834 18.3132 32.2529C18.3796 32.3349 18.4382 32.4209 18.489 32.5146C19.7546 34.9131 21.1453 37.2451 22.1023 39.7998C22.5984 41.1201 23.1335 42.4248 23.6335 43.7412C24.1648 45.1123 24.4968 46.5303 24.6335 47.9951C24.7429 49.1904 24.8679 50.3818 25.0007 51.5771C25.0203 51.7803 25.0476 52.0068 25.2312 52.1396C25.3171 52.1943 25.407 52.2021 25.5007 52.1631C25.6296 52.0732 25.7312 51.956 25.8093 51.8193C26.5164 50.4209 27.321 49.0771 28.1648 47.7568C28.9499 46.5224 29.6609 45.2451 30.4031 43.9834C30.5398 43.7607 30.6648 43.5303 30.7742 43.292C31.5554 41.4638 32.6335 39.7842 33.4578 37.9795C33.5867 37.6982 33.7312 37.4209 33.8953 37.1553C35.1531 35.1045 36.1882 32.9365 37.3796 30.8467C38.1804 29.4443 38.907 27.9951 39.6531 26.5576C39.821 26.2334 39.9578 25.8896 40.0984 25.5576C40.7351 24.0654 41.3249 22.5576 42.0242 21.0967C42.2273 20.6709 42.3914 20.2295 42.5476 19.7881C43.114 18.2138 43.6765 16.6396 44.2312 15.0615C44.8054 13.4287 45.5281 11.8701 46.2664 10.3076C46.5437 9.72556 46.9812 9.28416 47.4851 8.90134C47.614 8.80759 47.7624 8.75681 47.9226 8.75681C48.0828 8.75681 48.2273 8.80759 48.3601 8.90134C48.9421 9.374 49.3796 9.94431 49.5749 10.6865C49.7976 11.542 50.0867 12.3857 50.0593 13.292C50.0554 13.5537 50.0749 13.8154 50.1257 14.0732C50.2976 15.1084 50.2976 16.1513 50.2664 17.1982C50.239 17.9795 50.2078 18.7646 50.3015 19.5459C50.3249 19.7529 50.3328 19.9638 50.3249 20.1709C50.3054 21.3193 50.3093 22.4717 50.2546 23.6162C50.1414 25.8115 50.2195 28.0029 50.2429 30.1943C50.2546 31.7099 50.1492 33.2256 50.0828 34.7373C50.0515 35.417 49.9773 36.0928 49.9382 36.7724C49.907 37.499 49.8249 38.2217 49.6804 38.9365C49.6101 39.2959 49.5632 39.6592 49.5398 40.0263C49.3796 41.956 48.9148 43.8388 48.6531 45.7529C48.0945 47.8193 47.5515 49.8935 46.9812 51.9521C46.7976 52.6084 46.5749 53.249 46.3093 53.8779C45.907 54.8467 45.6023 55.8428 45.3953 56.8701C45.2039 57.7959 44.9499 58.6982 44.6804 59.6006C44.3289 60.749 44.0515 61.917 43.8406 63.1006C43.4265 65.5224 42.8289 67.9013 41.7624 70.1435C41.3835 70.9443 41.1023 71.792 40.7117 72.5928C39.5828 74.8935 38.321 77.1162 36.8093 79.1904C36.071 80.2021 35.4187 81.2763 34.7312 82.3232C34.2742 83.0224 33.8015 83.706 33.2976 84.3779C32.5164 85.4209 31.8171 86.5224 31.0867 87.6084C30.9109 87.8662 30.7507 88.1357 30.5867 88.4013C29.8601 89.5576 29.0476 90.6318 27.9617 91.4912C27.5085 91.8506 27.114 92.2685 26.782 92.7412C26.6296 92.956 26.4617 93.1513 26.2742 93.3349C24.8406 94.7451 23.7898 96.417 22.8953 98.1982C22.4187 99.1357 22.0828 100.12 21.8874 101.151C21.8484 101.358 21.8289 101.565 21.821 101.772C21.7937 102.503 21.782 103.233 21.7507 103.964C21.6804 105.687 21.5945 107.409 21.5281 109.132C21.5124 109.495 21.5476 109.862 21.5476 110.226C21.5554 111.948 21.6609 113.667 21.7273 115.386C21.8054 117.319 21.8992 119.245 22.1726 121.163C22.4382 123.026 22.6492 124.894 23.0867 126.726C23.1179 126.854 23.1921 126.913 23.3093 126.882C23.3562 126.862 23.3914 126.831 23.4226 126.788C23.4539 126.749 23.4773 126.702 23.4929 126.651C23.8757 125.081 24.3523 123.534 24.6804 121.948C24.7937 121.331 24.864 120.71 24.8953 120.081C24.9499 119.304 24.9578 118.515 25.0164 117.733C25.0945 116.694 25.1609 115.647 25.4539 114.636C25.571 114.233 25.6531 113.827 25.7039 113.409C25.8132 112.417 26.0867 111.464 26.364 110.515C26.5398 109.913 26.7156 109.312 26.8562 108.698C27.1921 107.272 27.6843 105.897 28.196 104.526C28.6179 103.401 29.0789 102.3 29.5749 101.202C30.032 100.206 30.5007 99.2138 31.1374 98.3154C31.3718 97.9678 31.5828 97.6084 31.7703 97.2334C32.3054 96.2138 32.9265 95.2529 33.6335 94.3428C33.9851 93.8857 34.3718 93.456 34.7859 93.0576C35.3132 92.5537 35.8562 92.0615 36.2976 91.4717C36.532 91.1865 36.7898 90.9248 37.071 90.6904C37.9109 89.9092 38.7664 89.1318 39.6101 88.3506C40.2624 87.749 40.9382 87.1748 41.4851 86.456C41.7078 86.1709 41.9968 85.9365 42.2624 85.6904C42.9187 85.0888 43.5828 84.499 44.2273 83.8857C44.7585 83.3857 45.321 82.9092 45.7273 82.2881C45.8171 82.1592 45.9226 82.042 46.0398 81.9404C47.282 80.8154 48.3601 79.5342 49.5281 78.3428C50.2234 77.6279 50.7859 76.8076 51.4578 76.0771C51.5984 75.9248 51.6882 75.7256 51.8367 75.581C52.6531 74.7646 53.2742 73.7959 53.9304 72.8545C54.4382 72.124 54.9968 71.4326 55.489 70.6982C56.2234 69.6201 56.9226 68.5146 57.6414 67.4248C58.7273 65.7685 59.8484 64.1357 61.1257 62.6123C61.4578 62.2138 61.7429 61.7685 62.0398 61.3388C62.6648 60.4404 63.3054 59.5498 64.071 58.7568C64.2781 58.5224 64.4734 58.2763 64.6492 58.0185C65.0515 57.4717 65.4734 56.9365 65.8288 56.3584C66.6101 55.0849 67.7507 54.167 68.8835 53.2412C69.2546 52.9404 69.6804 52.7451 70.1492 52.6553C70.5359 52.5771 71.0593 52.9013 71.1023 53.2881C71.1843 53.9599 71.239 54.6357 71.1453 55.3154C70.7976 57.8076 70.1804 60.2295 69.2898 62.5849C68.7078 64.1513 68.1765 65.7373 67.6257 67.3154C67.282 68.2998 66.9578 69.2959 66.5867 70.2685C65.9148 72.0303 65.5085 73.8701 64.8445 75.6357C64.6453 76.1709 64.532 76.7373 64.3835 77.292C63.8953 79.1631 63.3953 81.0303 62.5828 82.792C62.5085 82.9873 62.446 83.1865 62.3953 83.3896C61.2273 86.8818 59.6374 90.1553 57.4304 93.1162C56.4929 94.3701 55.5398 95.6162 54.6257 96.8857C54.2898 97.3545 53.9187 97.792 53.5085 98.1943C52.8406 98.8506 52.1335 99.4678 51.5515 100.222C51.1726 100.71 50.6609 101.101 50.2117 101.538C49.5437 102.194 48.8601 102.835 48.2585 103.569C47.7039 104.253 47.0906 104.905 46.4812 105.546C45.4695 106.604 44.5671 107.753 43.6374 108.874C43.3015 109.276 42.9187 109.636 42.5476 110.003C41.9187 110.628 41.2703 111.229 40.7039 111.921C40.282 112.448 39.7351 112.87 39.2468 113.339ZM26.9617 113.39C26.3718 114.163 26.196 115.05 26.239 115.995C26.2429 116.132 26.3054 116.198 26.4148 116.175C26.4656 116.163 26.5046 116.136 26.5281 116.089C26.6921 115.593 26.9734 114.128 26.9812 113.683C26.9734 113.581 26.9499 113.479 26.9148 113.386C27.2781 113.116 27.3757 112.698 27.4812 112.304C27.6921 111.55 27.9578 110.819 28.2781 110.108C28.9304 108.569 29.7898 107.151 30.6609 105.733C30.8718 105.37 31.1414 105.058 31.4656 104.788L31.4148 104.78C31.5437 105.062 31.3874 105.296 31.2703 105.515C30.7859 106.44 30.3015 107.362 29.782 108.269C28.8523 109.858 28.1921 111.55 27.7937 113.351C27.6414 114.062 27.4929 114.78 27.3523 115.495C27.321 115.702 27.3015 115.909 27.2898 116.12C27.2742 116.312 27.3835 116.534 27.4578 116.479C27.5359 116.425 27.6453 116.37 27.6843 116.292C28.2156 115.042 28.8289 113.831 29.5203 112.663C29.9109 111.987 30.3015 111.308 30.6648 110.616C31.1023 109.792 31.5164 108.933 32.2078 108.269C32.5398 107.667 33.0632 107.218 33.4812 106.683C34.6062 105.245 35.7156 103.796 36.8367 102.354C36.9968 102.147 37.1687 101.952 37.3484 101.761C38.2156 100.858 38.8992 99.792 39.8523 98.9638C40.0046 98.8271 40.1023 98.6279 40.2429 98.4717C40.4773 98.1904 40.7234 97.9248 40.9851 97.667C41.7859 96.9209 42.5984 96.1826 43.2624 95.2998C43.4812 95.0107 43.7429 94.7412 44.1062 94.624C44.1843 94.6006 44.2976 94.6631 44.3874 94.7021C44.407 94.7099 44.4187 94.7959 44.4031 94.8271C44.0789 95.4287 43.6765 95.9717 43.2039 96.4599C42.364 97.3193 41.5593 98.2099 40.7429 99.0888C40.6335 99.2021 40.5359 99.3232 40.446 99.4521C40.1335 99.9404 39.7156 100.343 39.3054 100.741C39.071 100.952 38.8601 101.179 38.6648 101.429C38.032 102.319 37.2664 103.112 36.5906 103.976C35.8484 104.921 35.0828 105.843 34.3601 106.8C34.0164 107.257 33.6726 107.714 33.3093 108.155C32.3796 109.288 31.5203 110.468 30.9031 111.812C30.7312 112.194 30.5359 112.562 30.3171 112.917C29.4031 114.386 28.6921 115.948 28.0789 117.577C28.1687 117.577 28.2742 117.604 28.3132 117.565C28.5007 117.39 28.6726 117.194 28.821 116.983C29.1023 116.534 29.4617 116.163 29.9031 115.87C29.9499 115.847 29.9968 115.835 30.0515 115.835C30.0828 115.933 30.1531 116.05 30.1179 116.124C30.032 116.312 29.9226 116.483 29.7859 116.64C29.3914 117.069 29.0945 117.558 28.8914 118.104C29.0242 118.104 29.1374 118.124 29.2117 118.085C29.5867 117.894 29.9226 117.647 30.2156 117.351C31.0124 116.526 31.9265 115.815 32.5476 114.823C32.6882 114.608 32.8992 114.437 33.0789 114.249C33.2976 114.026 33.5437 113.819 33.7234 113.565C34.0242 113.132 34.3992 112.772 34.7429 112.378C35.1218 111.952 35.4578 111.487 35.8171 111.038C35.8484 110.995 35.8874 110.964 35.9343 110.937C35.9812 110.917 36.032 110.897 36.0789 110.886C36.0984 110.968 36.157 111.062 36.1335 111.128C35.8992 111.714 35.571 112.245 35.157 112.722C34.0828 113.999 32.9929 115.261 31.9187 116.538C31.8328 116.671 31.7703 116.812 31.7351 116.96C31.7234 117.003 31.7507 117.058 31.7703 117.104C31.7859 117.159 31.821 117.194 31.8718 117.214C31.9226 117.233 31.9734 117.229 32.0203 117.198C32.6335 116.905 33.2117 116.554 33.7546 116.14C34.1609 115.819 34.6218 115.562 35.0554 115.272C35.8796 114.722 36.7664 114.245 37.5164 113.604C39.1023 112.253 40.8093 111.019 42.0632 109.312C42.1296 109.229 42.1999 109.155 42.2781 109.089C43.196 108.229 43.9226 107.198 44.739 106.253C45.7624 105.065 46.7312 103.835 47.9109 102.8C48.114 102.632 48.3015 102.448 48.4656 102.241C49.1531 101.304 50.0359 100.569 50.8601 99.7685C51.1257 99.5146 51.4343 99.2959 51.6531 99.0107C52.2234 98.2529 52.9304 97.6318 53.5906 96.9638C53.8445 96.7021 54.0828 96.4248 54.2976 96.1318C55.3523 94.7021 56.4109 93.2803 57.4382 91.8349C58.1062 90.8974 58.739 89.9404 59.2429 88.9053C59.8406 87.6787 60.3953 86.4443 60.8874 85.1787C61.739 82.9873 62.6062 80.8037 63.2273 78.5303C63.5007 77.5263 63.7703 76.5146 64.0632 75.5107C64.2976 74.7099 64.5671 73.9209 64.8249 73.124C65.2898 71.6865 65.7156 70.2295 66.239 68.8115C66.6531 67.6826 67.0437 66.5459 67.446 65.417C67.7078 64.6787 67.9499 63.9326 68.239 63.206C68.9109 61.5576 69.4421 59.8623 69.8249 58.1279C70.0476 57.1045 70.1921 56.0693 70.3328 55.0342C70.3757 54.7373 70.2859 54.417 70.2429 54.1084C70.2156 53.9209 69.907 53.7685 69.7507 53.8388C69.6492 53.8701 69.5554 53.9131 69.4656 53.9638C68.4499 54.7881 67.446 55.6084 66.6804 56.6943C65.9304 57.7607 65.1179 58.7881 64.2898 59.792C63.7234 60.4756 63.1765 61.167 62.6531 61.8857C61.9851 62.8154 61.3406 63.7724 60.5984 64.6435C59.7117 65.6826 59.0281 66.8506 58.2859 67.9834C57.4851 69.2099 56.6999 70.4404 55.907 71.667C55.821 71.7998 55.7234 71.9209 55.6179 72.0381C55.0124 72.6943 54.5281 73.4326 54.0554 74.1865C53.6687 74.8076 53.2234 75.3896 52.7195 75.9209C51.8953 76.792 51.239 77.8154 50.3015 78.5849C50.2624 78.6201 50.2273 78.6592 50.1999 78.706C49.739 79.2724 49.2976 79.8545 48.8132 80.4013C48.3992 80.8701 47.9226 81.2842 47.5007 81.7373C47.0398 82.2373 46.6374 82.792 46.1531 83.2607C45.1414 84.2451 44.0906 85.1865 43.0593 86.1474C42.7429 86.4209 42.4499 86.7178 42.1804 87.0381C41.7507 87.5693 41.2781 88.0576 40.7664 88.5068C39.8054 89.3935 38.8328 90.2646 37.8679 91.1513C37.5242 91.4678 37.1179 91.7568 36.8679 92.1357C36.3953 92.8506 35.7273 93.3623 35.1726 93.9795C34.7546 94.4443 34.3093 94.8974 33.9656 95.417C33.3874 96.2803 32.6843 97.0654 32.2703 98.0381C32.1374 98.3232 31.9773 98.5967 31.8015 98.8545C31.0984 99.9599 30.5671 101.155 30.0242 102.339C29.3054 103.905 28.8289 105.569 28.2273 107.183C28.0984 107.515 28.0632 107.894 27.9773 108.245C27.7937 109.007 27.6414 109.772 27.3289 110.499C26.9968 111.28 26.8328 112.097 26.8445 112.944C26.864 113.097 26.9031 113.245 26.9578 113.39H26.9617ZM47.3835 10.2256C47.2156 10.3935 47.0671 10.5732 46.9382 10.7724C46.6374 11.2646 46.3796 11.7763 46.157 12.3076C45.489 14.0615 44.7742 15.8037 44.2195 17.6006C43.8171 18.8935 43.3132 20.1631 42.8171 21.4209C42.4539 22.3467 42.0281 23.2451 41.6374 24.1553C40.9187 25.8349 40.1335 27.4873 39.282 29.1045C38.2781 30.999 37.3484 32.9287 36.2351 34.7568C36.1531 34.8935 36.0789 35.0303 36.0164 35.1748C35.7078 35.8974 35.2898 36.5615 34.9031 37.2451C34.364 38.1982 33.7976 39.1396 33.3874 40.1631C33.2859 40.4053 33.1687 40.6396 33.0398 40.8662C31.6335 43.4287 30.2898 46.0303 28.6726 48.4717C27.7781 49.8232 27.114 51.3076 26.3328 52.7217C26.1335 53.081 26.0515 53.5068 25.8601 53.874C25.1609 55.2178 24.6101 56.6279 23.9656 57.9951C23.7898 58.374 23.6492 58.7685 23.5085 59.1631C23.2624 59.8506 23.0476 60.5498 22.7859 61.2334C22.5046 61.9678 22.2781 62.7138 22.0671 63.4717C21.7742 64.5263 21.4617 65.5771 21.3679 66.6787C21.3523 66.8857 21.282 67.0849 21.2468 67.292C21.0554 68.3701 20.9187 69.4599 20.8289 70.5537C20.7078 72.0576 20.6492 73.5693 20.6531 75.0771C20.6531 75.8115 20.6335 76.542 20.6414 77.2724C20.657 79.0498 20.9109 80.8076 21.0085 82.581C21.1531 85.081 21.3718 87.5771 21.6726 90.0693C21.7078 90.374 21.7742 90.6787 21.8367 90.9834C21.8445 91.0224 21.8992 91.0615 21.9382 91.081C22.0593 91.1396 22.1335 91.0888 22.1492 90.9482C22.1804 90.7412 22.1999 90.5342 22.2078 90.3232C22.2195 88.7568 22.1648 87.1943 22.2312 85.6279C22.2312 85.5224 22.2078 85.4209 22.1999 85.3154C22.1804 85.1592 22.1804 85.0029 22.1921 84.8467C22.4226 83.5576 22.3953 82.2451 22.5359 80.9482C22.5593 80.6904 22.5984 80.4326 22.6492 80.1748C22.8718 79.1006 23.1062 78.0303 23.3406 76.9599C23.3601 76.9092 23.3914 76.8662 23.4382 76.8388C23.4773 76.8076 23.5242 76.7959 23.5749 76.7998C23.6218 76.8115 23.6492 76.8428 23.6648 76.8857C23.7312 77.6748 23.3601 78.4209 23.446 79.2138C23.4617 79.3623 23.3914 79.5185 23.3718 79.6748C23.1453 81.167 22.8015 82.6513 22.946 84.1826C22.9773 84.4912 22.9148 84.8076 22.8992 85.1201C22.8132 86.8428 22.8367 88.5693 22.9695 90.292C22.9812 90.3467 23.0085 90.3896 23.0554 90.417C23.1687 90.4912 23.2507 90.4521 23.2898 90.3271C23.5281 89.581 23.7624 88.8388 24.0046 88.1006C24.0203 88.0459 24.0554 88.0068 24.1062 87.9834C24.1609 87.9599 24.2117 87.9599 24.2624 87.9873C24.3054 88.0263 24.3249 88.0732 24.321 88.1279C24.239 88.6943 24.1453 89.2607 24.0671 89.831C24.0476 90.0342 24.0476 90.2412 24.0593 90.4443C24.0671 90.4951 24.0945 90.5263 24.1414 90.5459C24.196 90.5576 24.2468 90.5498 24.2937 90.5224C24.5281 90.374 24.614 90.124 24.7273 89.8896C25.3562 88.6279 25.8367 87.2998 26.4773 86.0459C26.9304 85.1631 27.3171 84.249 27.739 83.3506C27.8953 83.0146 28.0632 82.6982 28.2273 82.3701C28.571 81.667 28.9226 80.9638 29.2624 80.2607C29.4421 79.8857 29.5945 79.4951 29.7781 79.1201C30.6999 77.2373 31.4421 75.2842 32.1179 73.3076C32.3874 72.5732 32.7117 71.8623 33.0906 71.1787C33.114 71.1357 33.1648 71.1045 33.1921 71.0615C33.2742 70.9482 33.5164 70.9013 33.6023 71.0029C33.6726 71.0771 33.7078 71.167 33.6999 71.2685C33.614 71.5693 33.4968 71.8584 33.3796 72.1513C33.0945 72.8779 32.7273 73.5693 32.4382 74.2998C31.8992 75.6553 31.4851 77.0654 30.7937 78.3584C30.7742 78.4053 30.7585 78.456 30.7429 78.5068C30.3132 79.6201 29.8914 80.7451 29.1648 81.7217C28.9929 81.9873 28.8601 82.2685 28.7664 82.5693C28.2507 83.9951 27.6414 85.3779 26.9343 86.7217C26.3523 87.8271 25.9265 89.0068 25.4226 90.1513C25.3992 90.2021 25.3914 90.2529 25.3992 90.3076C25.4109 90.3974 25.4382 90.4834 25.4695 90.5693C25.5203 90.5732 25.5671 90.5576 25.6101 90.5303C26.7312 89.3506 27.6023 87.9912 28.4031 86.5849C28.6374 86.1748 28.8914 85.7803 29.1453 85.3818C29.2859 85.1592 29.4382 84.9521 29.5906 84.7373C29.9539 84.2295 30.3523 83.7373 30.6726 83.206C31.3445 82.0928 32.0398 80.9795 32.7351 79.8779C33.4343 78.7803 33.9148 77.5498 34.4226 76.3506C34.5632 76.0146 34.6218 75.6474 34.6999 75.292C34.782 74.9365 34.8289 74.5732 34.9226 74.2217C34.9851 74.0029 35.1218 73.8545 35.3328 73.7763C35.4539 73.7256 35.5671 73.7646 35.5828 73.8857C35.6765 74.5185 35.6023 75.1279 35.3601 75.7178C35.2234 76.0498 35.0984 76.3974 34.9812 76.7412C34.5828 77.8623 34.1179 78.9599 33.4499 79.9756C32.6179 81.2412 31.8249 82.5303 31.0906 83.8545C30.9851 84.0381 30.8718 84.2099 30.7429 84.3779C29.9617 85.4248 29.2624 86.5263 28.6414 87.6748C28.0554 88.7373 27.239 89.6201 26.5593 90.6084C25.8757 91.1943 25.4148 91.9638 24.8523 92.6513C24.4304 93.1709 23.9968 93.6943 23.6726 94.292C23.6609 94.3154 23.7078 94.3896 23.7429 94.4248C23.7781 94.4599 23.8367 94.4834 23.8679 94.4717C23.9617 94.4365 24.0437 94.3857 24.1179 94.3115C24.6062 93.7021 25.0476 93.0498 25.5789 92.4795C26.2234 91.792 26.9031 91.1474 27.6218 90.5381C28.4265 89.8506 29.071 89.0381 29.657 88.1709C30.2937 87.2178 30.9187 86.2529 31.5671 85.3037C31.8914 84.8349 32.2781 84.4013 32.5945 83.9248C33.4031 82.7099 34.2273 81.5029 35.0632 80.3037C35.8445 79.1904 36.5828 78.0576 37.3718 76.9521C37.9421 76.1474 38.4148 75.2646 38.8874 74.3935C39.3874 73.4795 39.8289 72.5303 40.3132 71.6123C40.489 71.292 40.6414 70.9599 40.7703 70.6201C40.9539 70.0732 41.1765 69.5459 41.3718 69.0029C42.0046 67.2295 42.5749 65.4404 42.8562 63.5732C42.9968 62.6435 43.1531 61.7099 43.4578 60.8193C43.9382 59.3818 44.3289 57.917 44.6257 56.4248C44.782 55.6006 45.0398 54.8076 45.3914 54.042C45.7781 53.2412 46.071 52.4053 46.2664 51.5381C46.5437 50.3115 46.8992 49.1123 47.2234 47.9053C47.3328 47.5029 47.364 47.0732 47.5124 46.6865C47.7664 45.999 47.9382 45.2881 48.0359 44.5615C48.2742 42.9599 48.532 41.3584 48.6921 39.749C48.7742 38.9131 48.989 38.1045 49.0359 37.2685C49.1218 35.7568 49.2585 34.2451 49.2742 32.7295C49.2859 30.5888 49.4499 28.4521 49.2976 26.3115C49.2664 25.8974 49.3171 25.4756 49.3328 25.0576C49.3718 24.0654 49.4304 23.0732 49.446 22.081C49.4617 20.8271 49.4382 19.5732 49.4343 18.3193C49.4343 16.7529 49.4539 15.1865 49.1843 13.6357C49.1218 13.3271 49.0828 13.0185 49.071 12.7021C49.0593 11.9521 48.8054 11.2685 48.532 10.5849C48.4578 10.4053 48.2898 10.2529 48.157 10.1006C48.0203 9.999 47.8757 9.97556 47.7156 10.0303C47.6335 10.0849 47.5398 10.1357 47.3835 10.2256ZM18.5242 70.3349C18.6687 70.4795 18.9617 70.7763 19.2585 71.0693C19.3796 71.1787 19.6062 71.2138 19.6843 71.1201C19.7624 71.0303 19.8445 70.9638 19.8562 70.8779C19.9226 70.3623 19.9656 69.8428 20.0124 69.3193C20.0437 68.9951 19.9734 68.6982 19.7976 68.4209C19.5749 68.0654 19.3406 67.7178 19.282 67.292C19.2742 67.2099 19.3523 67.1123 19.407 67.0342C19.4421 66.999 19.489 66.9873 19.5398 66.999C19.6843 67.0576 19.8171 67.1396 19.9578 67.1982C20.2117 67.3115 20.3718 67.2295 20.4304 66.9756C20.4695 66.8232 20.4968 66.6709 20.5281 66.5146C20.6257 66.1201 20.5203 65.792 20.2156 65.5224C19.9109 65.2373 19.614 64.9443 19.321 64.6396C19.2234 64.5185 19.1414 64.3896 19.0789 64.249C19.0593 64.2021 19.0554 64.1553 19.0671 64.1045C19.157 64.0537 19.2507 64.0303 19.3523 64.0342C19.7781 64.1435 20.0085 64.5381 20.364 64.7529C20.5242 64.8506 20.8015 64.7295 20.8562 64.5303C20.9343 64.3154 20.907 64.1201 20.7742 63.9365C20.5632 63.6357 20.321 63.3662 20.0476 63.1201C19.032 62.3037 18.071 61.4209 16.9421 60.749C16.7703 60.6279 16.6179 60.4912 16.4773 60.3388C16.4421 60.2959 16.4343 60.2451 16.4499 60.1943C16.5046 60.1123 16.5749 60.0537 16.6609 60.0185C16.9343 59.956 17.1765 60.0654 17.3953 60.2217C18.3249 60.8896 19.2507 61.5654 20.1804 62.2373C20.2624 62.3037 20.3562 62.3428 20.4656 62.3467C20.5437 62.3388 20.6882 62.2373 20.6882 62.1787C20.6882 60.6592 20.5164 59.1631 20.1648 57.6826C19.8289 56.3154 19.4929 54.9443 19.0242 53.6123C18.9226 53.3154 18.8523 53.0107 18.8132 52.6982C18.6648 51.5576 18.446 50.4326 18.157 49.3154C18.1218 49.1631 18.1179 49.0107 18.1492 48.8545C18.1765 48.7529 18.239 48.6826 18.3406 48.6435C18.446 48.6357 18.5359 48.6748 18.6062 48.7529C18.7156 48.8662 18.7937 48.999 18.8406 49.1513C18.9617 49.6553 19.0476 50.1709 19.1648 50.6826C19.2195 50.8818 19.2859 51.0771 19.3718 51.2646C19.3992 51.3076 19.4382 51.331 19.489 51.3388C19.5359 51.3506 19.6101 51.3388 19.6296 51.3193C19.7273 51.1982 19.8015 51.0654 19.8523 50.917C20.1843 49.5185 20.8093 48.2568 21.364 46.956C21.4382 46.8193 21.5242 46.6943 21.6296 46.5771C21.696 46.4795 21.9109 46.4521 22.0632 46.5107C22.1843 46.5615 22.3171 46.7881 22.2859 46.8896C22.2703 46.9404 22.2859 47.0029 22.2624 47.042C21.6804 48.0459 21.3289 49.1396 20.8953 50.206C20.739 50.5928 20.6296 50.999 20.5749 51.4131C20.4539 52.3467 20.3484 53.2803 20.0437 54.1787C19.9812 54.3818 19.9812 54.5849 20.0437 54.792C20.1531 55.1357 20.2859 55.4756 20.4343 55.8076C20.4656 55.8467 20.5007 55.8779 20.5476 55.8935C20.5945 55.9287 20.6453 55.9326 20.6999 55.9053C20.7507 55.8818 20.782 55.8428 20.7859 55.7842C20.9773 55.0263 21.1804 54.2685 21.3445 53.5068C21.4812 52.8896 21.6882 52.3037 21.9695 51.7373C22.032 51.6045 22.1726 51.5146 22.2898 51.4092C22.4421 51.3154 22.5867 51.3232 22.7234 51.4365C22.8523 51.5498 22.9148 51.7334 22.8328 51.8545C22.2234 52.7373 21.9539 53.7295 21.8757 54.7881C21.8445 55.0498 21.7976 55.3037 21.739 55.5576C21.6023 56.2763 21.4343 56.9912 21.3328 57.7138C21.1609 58.9599 21.1921 59.3701 21.4578 61.1357C21.4656 61.1904 21.4929 61.2334 21.5398 61.2646C21.5867 61.2959 21.6335 61.3037 21.6882 61.2881C21.739 61.2803 21.782 61.2568 21.8132 61.2217C22.2468 60.6006 22.3484 59.8701 22.5046 59.1592C22.5398 58.9912 22.4265 58.8779 22.2664 58.8154C22.1218 58.7646 21.9304 58.7373 21.8484 58.6279C21.7039 58.4599 21.7703 58.2373 21.8562 58.042C22.071 57.5068 22.2273 56.956 22.3171 56.3857C22.4148 55.9248 22.532 55.4717 22.6804 55.0224C22.7742 54.706 22.9695 54.4717 23.2664 54.3193C23.3679 54.2881 23.4617 54.2998 23.5476 54.3584C23.6374 54.417 23.6843 54.4951 23.6882 54.6006C23.6492 54.8037 23.5828 54.999 23.4773 55.1787C23.0124 55.956 22.8406 56.8193 22.7312 57.6982C22.7312 57.7217 22.7859 57.7724 22.8171 57.7724C22.8679 57.7803 22.9148 57.7685 22.9539 57.7334C23.571 56.8779 23.9421 55.9013 24.3054 54.9209C24.4382 54.5693 24.4656 54.2138 24.3835 53.8467C24.0671 52.3623 23.9304 50.8545 23.8093 49.3428C23.6687 47.4053 23.282 45.5185 22.6414 43.6826C22.2234 42.5029 21.7429 41.3467 21.2664 40.1865C20.4734 38.2529 19.6414 36.3428 18.532 34.5615C17.5945 33.0576 16.8015 31.4638 15.6804 30.0732C15.4851 29.831 15.3679 29.5303 15.2078 29.2646C14.8601 28.6787 14.5632 28.0576 14.1492 27.5263C13.2429 26.3584 12.5906 25.0537 12.032 23.7021C11.7468 23.0263 11.3914 22.3896 11.0789 21.7295C11.0007 21.5967 10.8992 21.4756 10.7781 21.374C10.7351 21.3388 10.6843 21.3271 10.6296 21.3349C10.5828 21.3506 10.5515 21.3779 10.532 21.4287C10.4929 21.5771 10.4773 21.7295 10.489 21.8818C10.7273 23.167 10.9695 24.4482 11.2234 25.7256C11.4265 26.8623 11.7117 27.9756 12.071 29.0693C12.239 29.5615 12.3796 30.0654 12.4929 30.5732C12.9382 32.5146 13.5359 34.4013 14.2898 36.2412C15.0437 38.0849 15.5867 39.9912 16.1843 41.8818C16.196 41.9326 16.1921 41.9873 16.1765 42.0381C16.1687 42.0888 16.1492 42.1318 16.1257 42.1787C16.0359 42.1553 15.9031 42.1474 15.8718 42.0888C15.6648 41.6709 15.4578 41.2451 15.2859 40.8115C14.5593 38.9678 13.8484 37.1123 13.1257 35.2685C12.5124 33.706 11.9539 32.1396 11.6453 30.4873C11.5906 30.1826 11.4968 29.8779 11.4226 29.5771C11.0515 28.1631 10.6765 26.7451 10.2976 25.3349C10.2507 25.1865 10.1921 25.0459 10.1179 24.9092C10.1023 24.8779 10.0281 24.8623 9.9851 24.8623C9.93432 24.8701 9.89917 24.8935 9.87182 24.9326C9.6687 25.4834 9.69213 26.0615 9.64917 26.6318C9.55542 27.8857 9.46167 29.1357 9.37182 30.3857C9.05932 31.3974 9.10229 32.4482 9.02026 33.4873C8.99292 33.7998 9.00463 34.1123 8.99292 34.4287C8.96948 35.4209 8.87573 36.4092 8.71167 37.3896C8.42651 39.0928 8.26635 40.8076 8.22729 42.5342C8.15698 44.9326 7.92651 47.3271 7.96166 49.7295C7.96166 50.0888 7.86401 50.4521 7.82885 50.8154C7.77417 51.3857 7.68823 51.9599 7.69995 52.5303C7.73901 54.0888 7.65698 55.667 7.9226 57.2217C7.94995 57.3779 7.95776 57.5342 7.94995 57.6904C7.90307 58.542 8.14135 59.3467 8.37963 60.1474C8.50073 60.5459 8.67651 60.9365 8.75073 61.3428C8.96557 62.5342 9.37573 63.6592 9.81323 64.7803C10.0242 65.3154 10.2703 65.8349 10.446 66.3818C11.1492 68.5849 12.2664 70.5928 13.446 72.5654C14.1648 73.7724 14.9695 74.9326 15.7273 76.1162C16.489 77.3037 17.2156 78.5107 17.7585 79.8193C18.4382 81.456 19.1492 83.0849 19.5124 84.831C19.5984 85.2295 19.8171 85.6045 19.9812 85.9873C19.9929 86.0224 20.0906 86.0615 20.1023 86.0498C20.1648 85.9912 20.2585 85.917 20.2546 85.8506C20.2351 85.2803 20.196 84.706 20.1648 84.1357C20.1218 83.4599 20.0828 82.7803 20.0476 82.1045C19.696 81.4482 19.7312 80.6865 19.4734 80.0029C19.2898 79.5146 19.1257 79.0342 18.8328 78.5849C18.2273 77.6709 17.6765 76.7217 17.114 75.7803C16.6882 75.0654 16.2742 74.3428 15.7781 73.6631C15.282 72.9873 14.8796 72.2607 14.4499 71.5498C13.8953 70.6045 13.4773 69.5849 13.0164 68.5888C12.8914 68.3154 12.8679 67.9873 12.8249 67.6787C12.8171 67.6123 12.9187 67.4717 12.9656 67.4717C13.071 67.4834 13.157 67.5303 13.2234 67.6123C13.321 67.7373 13.3953 67.874 13.446 68.0224C13.8093 69.124 14.4031 70.1045 15.0085 71.081C15.5242 71.9287 16.0906 72.7412 16.5984 73.5928C17.4265 74.9795 18.3718 76.292 19.2078 77.6748C19.239 77.7217 19.2742 77.7568 19.321 77.7881C19.364 77.8115 19.4304 77.8545 19.4617 77.8349C19.5398 77.7881 19.6414 77.7256 19.6609 77.6513C19.7078 77.4482 19.7429 77.2412 19.7585 77.0342C19.8406 76.4287 19.6843 75.8896 19.2937 75.4209C18.6882 74.6904 18.3093 73.8232 17.8679 72.9951C17.7976 72.8545 17.7312 72.7138 17.6765 72.5654C17.6296 72.4521 17.6531 72.3428 17.7546 72.3037C17.8406 72.2763 17.9812 72.2685 18.0281 72.3154C18.1687 72.4678 18.2859 72.6357 18.3757 72.8193C18.5984 73.2998 18.9109 73.7099 19.321 74.0459C19.4304 74.1279 19.5359 74.1045 19.5789 73.9873C19.8367 73.2959 19.782 72.6592 19.2507 72.1045C19.0007 71.8388 18.7468 71.5732 18.4968 71.3115C18.3445 71.1709 18.1999 71.0224 18.0671 70.8623C17.4343 69.9717 16.7624 69.1084 16.1999 68.1631C15.489 67.0029 14.8562 65.7998 14.3054 64.5576C14.0789 64.0303 13.8601 63.499 13.8015 62.9209C13.7976 62.8506 13.8953 62.7685 13.9578 62.706C13.9734 62.6904 14.0671 62.7217 14.0867 62.7529C14.2468 63.081 14.407 63.4092 14.5554 63.7451C15.0203 64.792 15.4929 65.8349 16.1062 66.8154C16.4109 67.2998 16.7429 67.7724 17.0007 68.2803C17.364 68.9873 17.8562 69.5888 18.5242 70.3349ZM6.57104 11.6709C6.70385 11.4092 6.62182 11.2021 6.53198 11.0263C6.38745 10.749 6.18823 10.5068 6.01635 10.2451C5.90698 10.0693 5.81323 9.88572 5.88745 9.65916C5.95776 9.45213 5.94604 9.249 5.8601 9.04978C5.61792 8.46384 5.28588 7.9365 4.86401 7.46775C4.58276 7.15525 4.27416 6.86228 4.05541 6.51463C3.2312 5.1865 2.23901 3.95994 1.56323 2.54588C1.51245 2.45213 1.45385 2.36619 1.38354 2.28806C1.34448 2.249 1.2976 2.23728 1.24291 2.249C1.16088 2.29197 1.0437 2.34666 1.02026 2.42088C0.949946 2.67088 0.903072 2.92478 0.879634 3.1865C0.778072 4.44822 1.03588 5.68259 1.22729 6.91306C1.39916 8.04197 1.64135 9.17088 2.1101 10.2334C2.22338 10.5224 2.31713 10.8193 2.39526 11.124C2.90698 12.8271 3.52807 14.4873 4.59838 15.9365C5.2937 17.2724 6.38745 18.2178 7.59057 19.0693C7.62963 19.0928 7.6726 19.0928 7.71557 19.0693C7.75463 19.0303 7.77416 18.9834 7.77026 18.9248C7.72338 18.7763 7.64917 18.6357 7.6101 18.4873C7.59057 18.3857 7.58667 18.2842 7.59448 18.1787C7.60229 18.0459 7.68042 17.9912 7.80932 18.0029C8.01635 18.0224 8.28198 18.0654 8.36792 17.8584C8.43432 17.6904 8.35229 17.456 8.31323 17.2529C8.28979 17.1513 8.24292 17.0615 8.1726 16.9795C7.5476 16.1553 7.05932 15.2138 6.20776 14.5693C6.09838 14.4834 6.09838 14.2959 6.18823 14.1396C6.28198 13.9795 6.47338 13.9053 6.58666 13.9834C6.87963 14.1865 7.16479 14.4013 7.45385 14.6045C7.46948 14.6162 7.5476 14.5615 7.5437 14.5537C7.40698 14.0537 7.24291 13.5615 6.89916 13.1592C5.84838 11.9326 4.83667 10.667 3.55541 9.66306C3.51635 9.63181 3.49682 9.57712 3.46166 9.53806C3.37182 9.38572 3.37963 9.24119 3.48901 9.10447C3.59057 9.01853 3.83667 8.98728 3.9226 9.04978C4.05151 9.13572 4.1726 9.22947 4.28588 9.33494C4.89917 9.97947 5.50463 10.6279 6.11791 11.2724C6.25073 11.4053 6.41088 11.5263 6.57104 11.6709Z" fill="#ECB597"/>
<path d="M34.5239 67.4366C34.477 67.4484 34.4145 67.4796 34.3794 67.464C34.2973 67.4249 34.1567 67.3624 34.1567 67.3038C34.1255 66.5616 34.2622 65.8507 34.563 65.1671C34.8833 64.3976 35.1958 63.6202 35.5395 62.8585C36.352 61.0499 37.0669 59.2023 37.77 57.3468C38.6528 54.9991 39.5317 52.6554 40.1411 50.2179C40.6059 49.1046 40.7778 47.9054 41.0825 46.7452C41.5512 44.9796 41.9536 43.1944 42.4614 41.4405C42.9145 39.8819 43.2036 38.2882 43.5005 36.6984C43.645 35.9288 43.8559 35.1749 43.9223 34.3859C43.9653 33.8741 44.1645 33.378 44.2973 32.8741C44.3325 32.7413 44.5864 32.628 44.6801 32.7023C44.7622 32.7648 44.8286 32.839 44.8755 32.9327C44.9223 33.0304 44.9341 33.128 44.9106 33.2335C44.52 34.378 44.3637 35.5734 44.1294 36.7491C43.5942 39.5187 42.938 42.2609 42.2036 44.9913C41.9067 46.1046 41.6958 47.2335 41.395 48.3429C40.8598 50.3038 40.3286 52.2726 39.6762 54.2023C39.6606 54.2491 39.6216 54.2921 39.6098 54.3429C39.1294 56.3312 38.1489 58.1437 37.5551 60.0929C37.4341 60.4874 37.2192 60.8546 37.0551 61.2374C36.4262 62.671 35.7973 64.1085 35.1684 65.5421C34.9262 66.0694 34.7583 66.6163 34.6645 67.1866C34.6333 67.2765 34.5864 67.3585 34.5239 67.4366Z" fill="#ECB597"/>
<path d="M47.1605 16.3035C47.1957 16.3426 47.223 16.3817 47.2504 16.4246C47.2699 16.4754 47.2777 16.5262 47.2699 16.577C46.9847 17.9559 46.8519 19.3621 46.4652 20.7215C46.1996 21.6785 46.0511 22.659 46.0277 23.6512C46.0004 24.3309 45.934 25.0027 45.8207 25.6707C45.6176 27.0067 45.4769 28.3582 45.3051 29.702C45.2777 29.9051 45.2426 30.1082 45.1957 30.3113C45.184 30.3543 45.1215 30.4207 45.0941 30.4207C44.9926 30.409 44.9027 30.3738 44.8246 30.3113C44.7504 30.2293 44.7113 30.1356 44.7074 30.0262C44.6722 29.5574 44.6683 29.0887 44.6957 28.6199C44.8051 27.4285 44.9418 26.2371 45.0863 25.0457C45.2152 23.9598 45.3597 22.8738 45.5199 21.7918C45.6136 21.1746 45.7426 20.5692 45.8636 19.9481C46.0238 19.1277 46.2152 18.3192 46.2855 17.4832C46.3051 17.0496 46.4574 16.6668 46.7386 16.3387C46.8168 16.2567 47.0941 16.2215 47.1605 16.3035Z" fill="#ECB597"/>
<path d="M50.3327 87.2608C50.0632 87.4756 50.0085 87.8545 49.653 87.9287C49.6022 87.9366 49.5554 87.9327 49.5085 87.9092C49.4655 87.8897 49.403 87.8389 49.4069 87.8116C49.4225 87.7022 49.4538 87.6006 49.5007 87.5069C49.8366 86.8545 50.2507 86.253 50.7389 85.7061C51.3639 85.003 51.8874 84.2295 52.4108 83.4522C53.1374 82.3741 53.9147 81.3233 54.6569 80.253C55.278 79.3584 55.8835 78.4444 56.4968 77.542C56.6647 77.2764 56.8483 77.0225 57.0436 76.7803C58.0749 75.5928 58.9264 74.2842 59.7116 72.9287C59.9733 72.4834 60.2624 72.042 60.5397 71.6045C60.7233 71.3467 60.8874 71.085 61.0397 70.8116C61.653 69.542 62.4968 68.4053 63.1296 67.1475C63.2038 67.0108 63.2702 66.8702 63.3327 66.7256C64.0554 64.8155 65.1843 63.1084 66.0983 61.2959C66.1335 61.2217 66.2546 61.1827 66.3444 61.1436C66.3952 61.1358 66.4382 61.1514 66.4772 61.1827C66.5163 61.2139 66.5749 61.2686 66.5671 61.3037C66.5358 61.5069 66.485 61.71 66.4147 61.9053C65.9147 63.0498 65.4499 64.21 64.8014 65.2881C64.6647 65.5108 64.5554 65.7452 64.4655 65.9912C63.8952 67.5733 62.9889 68.9795 62.1374 70.4092C61.2546 71.8897 60.3288 73.3389 59.4421 74.8116C58.9616 75.6202 58.4186 76.3819 57.8093 77.1006C57.278 77.7412 56.7936 78.4209 56.36 79.1358C55.9147 79.8428 55.4694 80.5381 54.903 81.1631C54.4889 81.6202 54.1804 82.1787 53.8132 82.6866C52.6725 84.2491 51.6179 85.8662 50.3327 87.2608Z" fill="#ECB597"/>
<path d="M46.6333 90.9636C46.7231 90.9167 46.813 90.8738 46.9067 90.8386C46.9536 90.8347 46.9927 90.8464 47.0278 90.8777C47.0669 90.9089 47.1216 90.9675 47.1138 90.9988C46.9575 91.5574 46.1958 92.6277 45.7192 92.9519C45.6646 92.991 45.5317 92.9519 45.4458 92.9128C45.395 92.8933 45.3599 92.8581 45.3403 92.8074C45.3208 92.7527 45.3247 92.7019 45.3521 92.655C45.5981 91.9597 46.106 91.448 46.6333 90.9636Z" fill="#ECB597"/>
<path d="M31.458 104.788C31.3994 104.573 31.4619 104.405 31.6455 104.276C31.7002 104.237 31.8018 104.253 31.8838 104.245C31.8682 104.292 31.8643 104.347 31.833 104.378C31.6963 104.519 31.5518 104.647 31.4111 104.78L31.458 104.788Z" fill="#ECB597"/>
<path d="M16.8286 45.1633C16.6568 44.7766 16.3521 44.3313 16.4146 43.7805C16.4185 43.7258 16.4458 43.6828 16.4927 43.6555C16.5396 43.6242 16.5864 43.6203 16.6411 43.6399C16.688 43.6555 16.7505 43.6633 16.7778 43.6946C17.2622 44.2805 17.4849 44.9446 17.3755 45.7063C17.3677 45.7531 17.2974 45.8313 17.2857 45.8274C17.1958 45.7883 17.0825 45.7531 17.0396 45.6789C16.9536 45.5149 16.8833 45.343 16.8286 45.1633Z" fill="#ECB597"/>
</svg>
